
  <svg width="2000" height="2000" viewBox="0 0 1000 1000" xmlns="http://www.w3.org/2000/svg">
    <defs>
      <clipPath id="shape">
        <path fill="currentColor" d="M792,640.5Q781,781,640.5,800.5Q500,820,344,816Q188,812,118.5,656Q49,500,141.5,367Q234,234,367,216.5Q500,199,670,179.5Q840,160,821.5,330Q803,500,792,640.5Z"></path>
      </clipPath>
    </defs>
    <g  clip-path="url(#shape)">
      <path fill="#444cf7" d="M792,640.5Q781,781,640.5,800.5Q500,820,344,816Q188,812,118.5,656Q49,500,141.5,367Q234,234,367,216.5Q500,199,670,179.5Q840,160,821.5,330Q803,500,792,640.5Z"/> 
      <image xlink:href=""/>
    </g>
 </svg>